<?xml version="1.0" encoding="utf-8"?>

<!DOCTYPE svg PUBLIC "-//W3C//DTD SVG 1.1//EN" "http://www.w3.org/Graphics/SVG/1.1/DTD/svg11.dtd">
<!-- Uploaded to: SVG Repo, www.svgrepo.com, Generator: SVG Repo Mixer Tools -->
<svg height="800px" width="800px" version="1.1" id="_x32_" xmlns="http://www.w3.org/2000/svg" xmlns:xlink="http://www.w3.org/1999/xlink" 
	 viewBox="0 0 512 512"  xml:space="preserve">
<style type="text/css">
	.st0{fill:#000000;}
</style>
<g>
	<path class="st0" d="M437.016,74.984C390.756,28.682,326.621-0.008,255.996,0C185.372-0.008,121.244,28.682,74.984,74.984
		C28.683,121.244-0.008,185.371,0,256.004c-0.008,70.624,28.683,134.752,74.984,181.011c46.26,46.302,110.388,74.992,181.012,74.984
		c70.625,0.008,134.76-28.683,181.02-74.984c46.301-46.259,74.992-110.387,74.984-181.011
		C512.008,185.371,483.318,121.244,437.016,74.984z M413.87,413.87c-5.452,5.453-11.196,10.591-17.18,15.456l-47.072-144.838
		l-0.008-0.017l-10.044-30.911l-11.462-35.188h-32.478l17.644,54.282v0.016l10.044,30.912l0.009-0.009l24.987,76.948l-54.946-39.896
		l-26.262,19.086l112.857,81.986c-35.461,23.726-78.034,37.558-123.962,37.566c-45.663-0.008-87.995-13.69-123.341-37.176
		l123.937-90.009l26.255-19.119l29.926-21.722l-10.061-30.919l-46.12,33.555l-26.304,19.086l-65.454,47.561l20.984-64.583
		l-26.295-19.128l-43.302,133.228c-6.306-5.072-12.373-10.442-18.091-16.169c-40.442-40.459-65.388-96.15-65.396-157.865
		c0-20.992,2.951-41.264,8.354-60.498l122.437,88.982l0.008-0.017l26.296,19.111l29.95,21.754l26.296-19.127l-46.203-33.556
		l-0.008,0.008l-26.288-19.102l-0.008,0.008l-65.445-47.56h67.923l10.02-30.92H47.909c11.32-29.081,28.509-55.235,50.222-76.957
		c38.096-38.08,89.693-62.403,147.116-65.122l-3.372,10.351l-42.829,131.728l-10.011,30.92l-11.42,35.196l26.254,19.086
		l17.644-54.281l10.061-30.92l25.019-76.915l20.984,64.551h32.519l-42.15-129.664c56.943,3,108.084,27.257,145.924,65.072
		c21.713,21.722,38.909,47.876,50.23,76.957H244.56l-10.02,30.92h170.479l-54.945,39.894v0.042l10.06,30.912l110.976-80.661
		c5.278,19.036,8.154,39.066,8.154,59.81C479.257,317.72,454.304,373.41,413.87,413.87z"/>
</g>
</svg>